<svg xmlns="http://www.w3.org/2000/svg" xmlns:xlink="http://www.w3.org/1999/xlink" width="500" zoomAndPan="magnify" viewBox="0 0 375 374.999991" height="500" preserveAspectRatio="xMidYMid meet" version="1.0"><defs><clipPath id="id1"><path d="M 58.222656 91 L 316.972656 91 L 316.972656 316.972656 L 58.222656 316.972656 Z M 58.222656 91 " clip-rule="nonzero"/></clipPath><clipPath id="id2"><path d="M 113 58.222656 L 262 58.222656 L 262 107 L 113 107 Z M 113 58.222656 " clip-rule="nonzero"/></clipPath></defs><g clip-path="url(#id1)"><path fill="#000000" d="M 316.972656 187.597656 C 316.972656 153.664062 303.90625 122.792969 282.519531 99.703125 C 276.945312 93.683594 270.113281 90.734375 264.9375 91.707031 C 260.023438 92.625 240.679688 97.230469 213.472656 122.910156 C 213.472656 122.910156 246.464844 157.15625 265.222656 187.597656 C 283.945312 218.027344 290.179688 241.40625 283.324219 274.589844 C 283.257812 274.214844 280.632812 257.175781 263.207031 233.085938 C 249.59375 214.289062 209.164062 169.265625 187.597656 148.785156 C 166.03125 169.265625 125.601562 214.25 111.992188 233.0625 C 94.566406 257.136719 91.9375 274.175781 91.875 274.566406 C 85.015625 241.378906 91.253906 217.988281 109.972656 187.574219 C 128.734375 157.132812 161.722656 122.886719 161.722656 122.886719 C 134.515625 97.191406 115.175781 92.597656 110.257812 91.679688 C 105.082031 90.710938 98.253906 93.660156 92.675781 99.675781 C 71.289062 122.769531 58.222656 153.636719 58.222656 187.574219 C 58.222656 221.09375 70.96875 251.613281 91.875 274.589844 C 91.875 274.589844 91.875 274.617188 91.875 274.617188 C 115.535156 300.621094 149.796875 316.972656 187.613281 316.972656 C 225.53125 316.972656 259.660156 300.648438 283.335938 274.65625 L 283.335938 274.628906 C 304.230469 251.652344 316.972656 221.121094 316.972656 187.597656 Z M 316.972656 187.597656 " fill-opacity="1" fill-rule="nonzero"/></g><g clip-path="url(#id2)"><path fill="#000000" d="M 187.597656 106.015625 L 187.597656 106.039062 C 188.75 105.121094 242.765625 62.027344 261.304688 82.457031 C 259.324219 80.0625 255.480469 77.421875 254.070312 76.59375 C 234.652344 64.925781 211.894531 58.222656 187.613281 58.222656 L 187.597656 58.222656 C 166.589844 58.222656 140.546875 64.898438 121.125 76.570312 C 119.714844 77.398438 115.875 80.035156 113.894531 82.429688 L 113.894531 82.441406 C 132.433594 62 186.445312 105.097656 187.597656 106.015625 Z M 187.597656 106.015625 " fill-opacity="1" fill-rule="nonzero"/></g></svg>