<svg xmlns="http://www.w3.org/2000/svg" xmlns:xlink="http://www.w3.org/1999/xlink" width="500" zoomAndPan="magnify" viewBox="0 0 375 374.999991" height="500" preserveAspectRatio="xMidYMid meet" version="1.0"><defs><clipPath id="id1"><path d="M 34 68.324219 L 345 68.324219 L 345 306.824219 L 34 306.824219 Z M 34 68.324219 " clip-rule="nonzero"/></clipPath></defs><g clip-path="url(#id1)"><path fill="#000000" d="M 341.902344 251.578125 C 335.832031 259.238281 320.980469 264.6875 320.980469 264.6875 L 210.535156 304.359375 L 210.535156 275.101562 L 291.816406 246.148438 C 301.046875 242.855469 302.460938 238.160156 294.957031 235.71875 C 287.472656 233.253906 273.921875 233.972656 264.710938 237.269531 L 210.535156 256.347656 L 210.535156 225.984375 L 213.65625 224.9375 C 213.65625 224.9375 229.304688 219.390625 251.3125 216.949219 C 273.320312 214.523438 300.273438 217.277344 321.425781 225.285156 C 345.277344 232.847656 347.953125 243.941406 341.902344 251.578125 Z M 221.042969 201.785156 L 221.042969 126.9375 C 221.042969 118.15625 219.433594 110.070312 211.195312 107.78125 C 204.871094 105.746094 200.957031 111.621094 200.957031 120.386719 L 200.957031 307.773438 L 150.425781 291.738281 L 150.425781 68.324219 C 171.910156 72.316406 203.207031 81.742188 220.035156 87.421875 C 262.828125 102.101562 277.332031 120.386719 277.332031 161.589844 C 277.332031 201.746094 252.554688 216.96875 221.042969 201.765625 Z M 57.703125 272.074219 C 33.234375 265.132812 29.160156 250.785156 40.308594 242.523438 C 50.625 234.882812 68.152344 229.144531 68.152344 229.144531 L 140.613281 203.355469 L 140.613281 232.730469 L 88.457031 251.40625 C 79.265625 254.703125 77.847656 259.375 85.332031 261.835938 C 92.816406 264.28125 106.371094 263.582031 115.582031 260.285156 L 140.59375 251.191406 L 140.59375 277.484375 L 135.613281 278.320312 C 129.113281 279.371094 122.570312 280.03125 115.992188 280.292969 C 109.414062 280.558594 102.84375 280.425781 96.277344 279.898438 C 89.714844 279.371094 83.207031 278.453125 76.753906 277.140625 C 70.300781 275.828125 63.953125 274.132812 57.703125 272.054688 Z M 57.703125 272.074219 " fill-opacity="1" fill-rule="nonzero"/></g></svg>