<svg xmlns="http://www.w3.org/2000/svg" xmlns:xlink="http://www.w3.org/1999/xlink" width="500" zoomAndPan="magnify" viewBox="0 0 375 374.999991" height="500" preserveAspectRatio="xMidYMid meet" version="1.0"><defs><clipPath id="id1"><path d="M 41.503906 45.503906 L 183 45.503906 L 183 337.253906 L 41.503906 337.253906 Z M 41.503906 45.503906 " clip-rule="nonzero"/></clipPath><clipPath id="id2"><path d="M 211 45.503906 L 333.253906 45.503906 L 333.253906 337.253906 L 211 337.253906 Z M 211 45.503906 " clip-rule="nonzero"/></clipPath></defs><path fill="#000000" d="M 87.453125 134.769531 C 87.71875 139.519531 87.976562 140.820312 89.921875 144.675781 C 92.789062 150.535156 97.03125 154.824219 102.890625 157.707031 C 106.9375 159.722656 107.972656 159.917969 113.234375 160.113281 C 117.988281 160.308594 119.679688 160.113281 122.875 158.996094 C 135.957031 154.570312 143.90625 141.867188 141.632812 128.773438 C 139.09375 113.335938 124.3125 102.917969 109.140625 105.980469 C 105.359375 106.699219 99.574219 109.617188 96.449219 112.304688 C 90.128906 117.773438 86.941406 125.578125 87.453125 134.769531 Z M 87.453125 134.769531 " fill-opacity="1" fill-rule="nonzero"/><g clip-path="url(#id1)"><path fill="#000000" d="M 103.9375 46.453125 C 74.882812 51.65625 51.519531 73.148438 44.164062 101.410156 C 41.503906 111.632812 41.308594 117.628906 41.625 196.8125 C 41.746094 269.484375 41.816406 271.183594 43.058594 276.851562 C 49.769531 307.132812 71.261719 328.683594 101.859375 335.785156 C 105.832031 336.695312 110.914062 336.890625 143.601562 337.023438 C 177.398438 337.289062 180.910156 337.21875 181.832031 336.304688 C 182.746094 335.394531 182.804688 323.738281 182.804688 191.597656 C 182.804688 93.582031 182.613281 47.484375 182.222656 46.648438 C 181.640625 45.527344 180.59375 45.480469 145.171875 45.527344 C 116.382812 45.601562 107.742188 45.796875 103.960938 46.441406 Z M 158.421875 69.003906 L 158.421875 191.441406 L 158.554688 191.429688 L 158.554688 313.792969 L 133.9375 313.476562 C 111.277344 313.210938 108.871094 313.085938 104.3125 311.96875 C 84.839844 306.960938 70.445312 291.972656 66.347656 272.449219 C 65.050781 266.324219 65.050781 116.082031 66.289062 110.089844 C 69.9375 93.097656 81.714844 79.03125 97.542969 72.710938 C 105.492188 69.511719 109.199219 69.125 135.042969 69.074219 Z M 158.421875 69.003906 " fill-opacity="1" fill-rule="nonzero"/></g><g clip-path="url(#id2)"><path fill="#000000" d="M 212.152344 45.867188 C 211.882812 46.0625 211.761719 111.511719 211.761719 191.429688 C 211.761719 323.175781 211.835938 336.523438 212.734375 336.914062 C 214.363281 337.496094 261.238281 337.304688 267.035156 336.648438 C 291.582031 333.839844 313.265625 318.933594 324.984375 296.785156 C 326.480469 293.929688 328.5 289.175781 329.542969 286.246094 C 333.324219 274.90625 333.253906 277.90625 333.253906 191.101562 C 333.253906 121.796875 333.128906 111.453125 332.28125 107.089844 C 326.285156 75.628906 302.265625 51.863281 270.746094 46.464844 C 266.503906 45.746094 260.011719 45.539062 238.96875 45.539062 C 224.378906 45.46875 212.332031 45.664062 212.140625 45.855469 L 212.152344 45.855469 Z M 241.375 197.03125 C 245.859375 182.25 261.554688 173.523438 276.675781 177.496094 L 276.675781 177.484375 C 286.121094 179.953125 293.804688 187.125 296.988281 196.316406 C 299.007812 201.980469 298.945312 210.320312 296.917969 215.535156 C 293.210938 225.101562 285.976562 231.8125 276.664062 234.289062 C 261.554688 238.191406 245.484375 229.074219 241.121094 214.097656 C 239.808594 209.539062 239.878906 201.785156 241.375 197.03125 Z M 241.375 197.03125 " fill-opacity="1" fill-rule="nonzero"/></g></svg>