<svg xmlns="http://www.w3.org/2000/svg" xmlns:xlink="http://www.w3.org/1999/xlink" width="500" zoomAndPan="magnify" viewBox="0 0 375 374.999991" height="500" preserveAspectRatio="xMidYMid meet" version="1.0"><defs><clipPath id="id1"><path d="M 37.5 37.5 L 337.5 37.5 L 337.5 340.5 L 37.5 340.5 Z M 37.5 37.5 " clip-rule="nonzero"/></clipPath></defs><g clip-path="url(#id1)"><path fill="#1a1918" d="M 187.242188 37.511719 C 108.304688 37.511719 43.640625 98.871094 37.5 176.835938 L 118.035156 210.410156 C 124.855469 205.707031 133.105469 202.953125 141.972656 202.953125 C 142.773438 202.953125 143.5625 202.976562 144.339844 203.023438 L 180.164062 150.683594 L 180.164062 149.949219 C 180.164062 118.453125 205.582031 92.824219 236.824219 92.824219 C 268.066406 92.824219 293.484375 118.453125 293.484375 149.949219 C 293.484375 181.4375 268.066406 207.085938 236.824219 207.085938 C 236.390625 207.085938 235.96875 207.074219 235.535156 207.0625 L 184.453125 243.800781 C 184.488281 244.480469 184.5 245.160156 184.5 245.824219 C 184.5 269.472656 165.421875 288.71875 141.972656 288.71875 C 121.386719 288.71875 104.164062 273.898438 100.273438 254.277344 L 42.667969 230.265625 C 60.507812 293.859375 118.457031 340.476562 187.242188 340.476562 C 270.234375 340.476562 337.5 272.644531 337.5 188.988281 C 337.5 105.328125 270.234375 37.511719 187.242188 37.511719 Z M 131.664062 267.355469 L 113.207031 259.664062 C 116.472656 266.535156 122.136719 272.285156 129.652344 275.433594 C 145.890625 282.257812 164.613281 274.496094 171.386719 258.117188 C 174.65625 250.179688 174.679688 241.433594 171.433594 233.488281 C 168.199219 225.539062 162.070312 219.332031 154.203125 216.03125 C 146.386719 212.765625 138.019531 212.882812 130.667969 215.679688 L 149.738281 223.628906 C 161.71875 228.664062 167.378906 242.523438 162.386719 254.605469 C 157.40625 266.675781 143.640625 272.390625 131.664062 267.355469 Z M 274.585938 149.945312 C 274.585938 128.960938 257.640625 111.875 236.828125 111.875 C 216.003906 111.875 199.070312 128.960938 199.070312 149.945312 C 199.070312 170.933594 216.003906 188.003906 236.828125 188.003906 C 257.640625 188.003906 274.585938 170.933594 274.585938 149.945312 Z M 208.527344 149.882812 C 208.527344 134.089844 221.230469 121.292969 236.886719 121.292969 C 252.554688 121.292969 265.257812 134.089844 265.257812 149.882812 C 265.257812 165.675781 252.554688 178.472656 236.886719 178.472656 C 221.230469 178.472656 208.527344 165.675781 208.527344 149.882812 Z M 208.527344 149.882812 " fill-opacity="1" fill-rule="nonzero"/></g></svg>